<?xml version="1.0" encoding="utf-8"?>
<!-- Generator: Adobe Illustrator 24.0.0, SVG Export Plug-In . SVG Version: 6.00 Build 0)  -->
<svg version="1.1" id="Calque_1" xmlns="http://www.w3.org/2000/svg" xmlns:xlink="http://www.w3.org/1999/xlink" x="0px" y="0px"
	 viewBox="0 0 1920 1080" style="enable-background:new 0 0 1920 1080;" xml:space="preserve">
<style type="text/css">
	.st0{fill:#666666;}
	.st1{fill:#FFFFFF;stroke:#000000;stroke-width:4;stroke-miterlimit:10;}
	.st2{fill:#666666;stroke:#000000;stroke-width:4;stroke-miterlimit:10;}
	.st3{fill:#FF1D25;}
	.st4{fill:none;stroke:#000000;stroke-width:4;stroke-miterlimit:10;}
	.st5{fill:none;}
	.st6{fill:#808080;stroke:#000000;stroke-width:2;stroke-miterlimit:10;}
	.st7{fill:none;stroke:#000000;stroke-width:2;stroke-miterlimit:10;}
	.st8{fill:#FFFFFF;stroke:#000000;stroke-width:2;stroke-miterlimit:10;}
	.st9{stroke:#000000;stroke-width:2;stroke-miterlimit:10;}
	.st10{fill:#FFFF00;stroke:#000000;stroke-width:2;stroke-miterlimit:10;}
	.st11{fill:#FFFFFF;stroke:#000000;stroke-miterlimit:10;}
	.st12{opacity:0.6;fill:#FFFF00;stroke:#000000;stroke-miterlimit:10;}
	.st13{fill:#1A1A1A;}
</style>
<g>
	<path class="st0" d="M729.29,429.15c-23.33,0-45.95-9.78-62.06-26.83c-15.6-16.5-23.91-38.02-23.4-60.59
		c0.51-22.56,9.76-43.47,26.07-58.88c15.53-14.67,35.9-22.75,57.37-22.75c23.33,0,45.95,9.78,62.06,26.83
		c32.19,34.06,31,87.66-2.66,119.47C771.14,421.07,750.76,429.15,729.29,429.15z"/>
	<path d="M727.26,258.09l0,4h0c22.78,0,44.87,9.55,60.61,26.21c15.23,16.12,23.35,37.13,22.86,59.17
		c-0.49,22.02-9.53,42.43-25.44,57.47c-15.15,14.32-35.04,22.21-56,22.21c-22.78,0-44.87-9.55-60.61-26.21
		c-15.23-16.12-23.35-37.13-22.86-59.17c0.49-22.02,9.53-42.43,25.44-57.47c15.15-14.32,35.04-22.21,56-22.21L727.26,258.09
		 M727.26,258.09c-21.15,0-42.25,7.72-58.74,23.3c-34.52,32.62-35.75,87.38-2.74,122.3c17.24,18.24,40.4,27.46,63.52,27.46
		c21.15,0,42.25-7.72,58.74-23.3c34.52-32.62,35.75-87.38,2.74-122.3C773.54,267.31,750.38,258.09,727.26,258.09L727.26,258.09z"/>
</g>
<path class="st1" d="M665.88,390.99"/>
<path class="st2" d="M782.74,280.54l205.38,217.3c1.34,1.41,1.27,3.64-0.14,4.98L872.45,612c-1.41,1.34-3.64,1.27-4.98-0.14
	L664.52,397.12c-1.34-1.41-1.27-3.64,0.14-4.98l0,0"/>
<path class="st1" d="M777.81,285.2"/>
<path class="st1" d="M680.4,377.26"/>
<path class="st1" d="M675.34,382.04"/>
<line class="st1" x1="665.88" y1="390.99" x2="668.51" y2="388.5"/>
<g>
	<path class="st3" d="M802.23,648.22c-5.26,0-10.27-1.99-14.1-5.61l-87.9-83.08c-3.98-3.77-6.26-8.86-6.42-14.34
		c-0.15-5.48,1.83-10.69,5.6-14.68l175.12-185.29c3.92-4.14,9.22-6.43,14.92-6.43c5.26,0,10.27,1.99,14.1,5.61l87.9,83.08
		c3.99,3.77,6.26,8.86,6.42,14.34c0.15,5.48-1.83,10.69-5.6,14.68L817.15,641.79C813.24,645.93,807.94,648.22,802.23,648.22
		C802.23,648.22,802.23,648.22,802.23,648.22z"/>
	<path d="M889.46,340.8c4.75,0,9.27,1.8,12.72,5.06l87.9,83.08c3.6,3.4,5.65,8,5.79,12.94c0.14,4.95-1.66,9.65-5.05,13.25
		L815.7,640.42c-3.54,3.74-8.32,5.8-13.47,5.8c-4.75,0-9.27-1.8-12.72-5.06l-87.9-83.08c-7.42-7.02-7.76-18.77-0.74-26.19
		L875.99,346.6C879.52,342.86,884.31,340.8,889.46,340.8 M889.46,336.8c-5.98,0-11.94,2.37-16.38,7.05L697.96,529.14
		c-8.55,9.04-8.14,23.3,0.9,31.85l87.9,83.08c4.35,4.11,9.92,6.16,15.47,6.16c5.98,0,11.95-2.37,16.38-7.05l175.12-185.29
		c8.55-9.04,8.14-23.3-0.9-31.85l-87.9-83.08C900.57,338.84,895.01,336.8,889.46,336.8L889.46,336.8z"/>
</g>
<g>
	<path class="st3" d="M949.19,466.16c-21.47,0-41.84-8.08-57.37-22.75c-33.66-31.82-34.86-85.41-2.66-119.47
		c16.12-17.05,38.74-26.83,62.06-26.83c21.47,0,41.84,8.08,57.37,22.75c33.66,31.81,34.86,85.41,2.66,119.47
		C995.14,456.38,972.52,466.16,949.19,466.16C949.2,466.16,949.2,466.16,949.19,466.16z"/>
	<path d="M951.23,299.1c20.96,0,40.84,7.89,56,22.21c15.91,15.04,24.95,35.45,25.44,57.47c0.49,22.04-7.62,43.06-22.86,59.17
		c-15.74,16.65-37.83,26.21-60.61,26.21c-20.96,0-40.84-7.89-56-22.21c-15.91-15.04-24.95-35.45-25.44-57.47
		c-0.49-22.04,7.62-43.06,22.86-59.17C906.36,308.65,928.45,299.1,951.23,299.1 M951.23,295.1c-23.12,0-46.28,9.22-63.52,27.46
		c-33,34.92-31.78,89.68,2.74,122.3c16.49,15.59,37.6,23.3,58.74,23.3c23.12,0,46.28-9.22,63.52-27.46
		c33-34.92,31.78-89.68-2.74-122.3C993.48,302.81,972.37,295.1,951.23,295.1L951.23,295.1z"/>
</g>
<line class="st4" x1="646" y1="354" x2="715" y2="431"/>
<g>
	<line class="st4" x1="703" y1="439" x2="714" y2="429"/>
</g>
<g>
	<path d="M834,175c34.29,0,67.56,6.7,98.87,19.92c30.25,12.77,57.41,31.05,80.74,54.33c23.33,23.28,41.64,50.39,54.43,80.58
		c13.24,31.25,19.96,64.45,19.96,98.67s-6.71,67.42-19.96,98.67c-12.79,30.19-31.11,57.3-54.43,80.58
		c-23.33,23.28-50.49,41.56-80.74,54.33C901.56,675.3,868.29,682,834,682s-67.56-6.7-98.87-19.92
		c-30.25-12.77-57.41-31.05-80.74-54.33c-23.33-23.28-41.64-50.39-54.43-80.58C586.71,495.92,580,462.72,580,428.5
		s6.71-67.42,19.96-98.67c12.79-30.19,31.11-57.3,54.43-80.58c23.33-23.28,50.49-41.56,80.74-54.33C766.44,181.7,799.71,175,834,175
		 M834,171c-142.49,0-258,115.29-258,257.5S691.51,686,834,686s258-115.29,258-257.5S976.49,171,834,171L834,171z"/>
</g>
<g>
	<rect x="701.85" y="291.1" class="st5" width="120.15" height="130.9"/>
	<path d="M771.57,308.98c0,0.51-0.06,1.13-0.18,1.88c-0.12,0.74-0.28,1.49-0.5,2.26c-0.22,0.76-0.47,1.48-0.76,2.17
		c-0.29,0.68-0.62,1.22-0.97,1.61c-0.94,1.13-2.62,1.7-5.04,1.7c0-2.66-0.37-4.86-1.11-6.62c-0.35-0.82-0.99-1.51-1.9-2.08
		c-0.92-0.57-1.94-1.04-3.08-1.44c-1.13-0.39-2.28-0.67-3.43-0.85c-1.15-0.18-2.14-0.26-2.96-0.26c-1.88,0-3.68,0.04-5.42,0.12
		c-1.74,0.08-3.44,0.24-5.1,0.5c-1.66,0.25-3.34,0.61-5.04,1.05c-1.7,0.45-3.47,1.05-5.3,1.79c-1.41,0.59-2.87,1.28-4.39,2.08
		c-1.52,0.8-2.93,1.71-4.22,2.72c-1.29,1.02-2.4,2.13-3.34,3.34c-0.94,1.21-1.52,2.54-1.76,3.98c-0.08,1.09,0.25,2.34,1,3.75
		c0.74,1.41,1.75,2.77,3.02,4.1c1.27,1.33,2.73,2.54,4.39,3.63c1.66,1.09,3.39,1.9,5.19,2.4c0.31,0.12,1.03,0.37,2.17,0.76
		c1.13,0.39,2.35,0.8,3.66,1.23c1.31,0.43,2.52,0.83,3.63,1.2c1.11,0.37,1.83,0.6,2.14,0.67c8.83,2.27,15.38,4.95,19.66,8.06
		s6.42,6.9,6.42,11.4c0,1.45-0.32,2.88-0.97,4.31c-0.64,1.43-1.46,2.79-2.43,4.1c-0.98,1.31-2.03,2.51-3.16,3.6
		c-1.13,1.09-2.19,2.01-3.16,2.75c-1.13,0.9-2.42,1.83-3.87,2.78c-1.45,0.96-2.99,1.89-4.63,2.78c-1.64,0.9-3.34,1.74-5.1,2.52
		s-3.54,1.46-5.33,2.05c-1.76,0.59-3.6,1.12-5.54,1.61c-1.93,0.49-3.85,0.91-5.74,1.26c-1.9,0.35-3.71,0.63-5.45,0.85
		c-1.74,0.21-3.29,0.32-4.66,0.32c-1.02,0-2.33-0.15-3.96-0.44c-1.62-0.29-3.21-0.7-4.78-1.23c-1.56-0.53-2.9-1.15-4.01-1.88
		c-1.11-0.72-1.67-1.49-1.67-2.31c0-0.51,0.07-1.13,0.21-1.88c0.14-0.74,0.33-1.46,0.59-2.17c0.25-0.7,0.55-1.3,0.88-1.79
		c0.33-0.49,0.71-0.73,1.14-0.73c0.78,0,1.59,0.13,2.43,0.38c0.84,0.25,1.84,0.54,2.99,0.85c1.15,0.31,2.52,0.6,4.1,0.85
		c1.58,0.25,3.51,0.38,5.77,0.38c2.34,0,4.78-0.24,7.29-0.73c2.52-0.49,4.99-1.14,7.41-1.96c2.42-0.82,4.74-1.76,6.94-2.81
		c2.21-1.05,4.19-2.15,5.95-3.28c0.82-0.55,1.73-1.18,2.72-1.9c1-0.72,1.92-1.51,2.78-2.37c0.86-0.86,1.58-1.78,2.17-2.75
		c0.59-0.98,0.88-1.99,0.88-3.05c0-1.48-1.09-2.91-3.28-4.28c-2.15-1.33-4.35-2.36-6.59-3.11c-2.25-0.74-4.25-1.33-6.01-1.76
		c-2.15-0.55-4.56-1.27-7.24-2.17c-2.68-0.9-5.62-1.97-8.82-3.22c-5.31-2.03-9.81-5-13.48-8.91c-3.67-3.91-5.51-8.61-5.51-14.12
		c-0.08-2.58,0.71-5.06,2.37-7.44c1.66-2.38,3.9-4.59,6.71-6.62c2.81-2.03,6.02-3.84,9.64-5.42c3.61-1.58,7.33-2.82,11.16-3.72
		c0.78-0.16,1.73-0.33,2.84-0.53c1.11-0.19,2.27-0.36,3.46-0.5c1.19-0.14,2.34-0.25,3.46-0.35c1.11-0.1,2.06-0.15,2.84-0.15
		c0.94,0,2.12,0.07,3.54,0.21c1.43,0.14,2.89,0.32,4.39,0.56c1.5,0.23,2.93,0.53,4.28,0.88s2.43,0.76,3.25,1.23
		c1.99,1.05,3.55,2.32,4.69,3.81C771.01,306.12,771.57,307.57,771.57,308.98z"/>
</g>
<g>
	<rect x="897.51" y="330.06" class="st5" width="125.57" height="124.42"/>
	<path d="M989.8,349.74c0,1.33-0.57,3.4-1.7,6.21c-0.55,1.37-1.07,2.56-1.58,3.57c-0.51,1.02-1.02,1.88-1.52,2.58
		c-2.77,3.95-7.3,8.05-13.59,12.3c-6.33,4.26-12.64,7.99-18.93,11.19c-4.14,2.15-8.27,4.07-12.39,5.77
		c-4.12,1.7-8.27,3.21-12.45,4.54c-0.23,0.31-0.35,1.07-0.35,2.29v1.93c0,1.09,0.06,2.61,0.18,4.54s0.27,4.31,0.47,7.12
		c0.19,2.81,0.35,5.3,0.47,7.47s0.18,4.07,0.18,5.71c0,1.48-0.45,2.66-1.35,3.52c-0.9,0.86-2.09,1.29-3.57,1.29
		c-4.3,0-6.45-9.32-6.45-27.95v-1.7c0-2.19,0.14-4.55,0.41-7.09c0.27-2.54,0.64-5.6,1.11-9.2c0.19-1.13,0.38-2.3,0.56-3.52
		c0.18-1.21,0.36-2.5,0.56-3.87c0.39-2.7,0.76-5.02,1.11-6.97c0.35-1.95,0.78-3.85,1.29-5.68c0.12-0.51,0.25-1.11,0.41-1.82
		c0.16-0.7,0.33-1.5,0.53-2.4c0.39-1.8,0.8-3.38,1.23-4.75c0.43-1.33,0.98-2.62,1.64-3.87c0.66-1.25,1.5-2.42,2.52-3.52
		c0.62-0.23,1.31-0.35,2.05-0.35c1.44,0,2.53,0.44,3.25,1.32c0.72,0.88,1.08,2.08,1.08,3.6c0,0.2-0.15,0.79-0.44,1.79
		s-0.63,2.06-1,3.19c-0.37,1.13-0.72,2.21-1.05,3.22c-0.33,1.02-0.54,1.64-0.62,1.88c-0.31,0.82-0.61,1.93-0.88,3.34
		c-0.2,1.13-0.4,2.3-0.62,3.49c-0.22,1.19-0.44,2.45-0.67,3.78c-0.23,1.29-0.44,2.59-0.62,3.9c-0.18,1.31-0.32,2.56-0.44,3.75
		c-0.12,1.19-0.23,2.31-0.32,3.34c-0.1,1.04-0.17,1.92-0.21,2.67c1.25-0.55,2.76-1.19,4.54-1.93c1.78-0.74,3.84-1.6,6.18-2.58
		c4.61-1.91,8.71-3.73,12.3-5.45c3.63-1.72,7.17-3.61,10.6-5.68c2.27-1.37,4.46-2.91,6.59-4.63c2.13-1.72,4.21-3.59,6.24-5.63
		c4.06-4.14,6.09-7.99,6.09-11.54c0-1.64-1.6-2.89-4.8-3.75c-1.6-0.43-3.22-0.77-4.86-1.03c-1.64-0.25-3.26-0.45-4.86-0.59
		c-1.6-0.14-3.15-0.22-4.66-0.26c-1.5-0.04-2.9-0.06-4.19-0.06c-7.7,0-15.86,0.84-24.49,2.52c-4.18,0.9-10.1,2.66-17.75,5.27
		c-0.9,0.35-1.58,0.53-2.05,0.53c-0.86,0-1.57-0.26-2.14-0.79c-0.57-0.53-0.85-1.22-0.85-2.08c0-1.91,0.56-3.46,1.67-4.63
		s2.72-2.21,4.83-3.11c2.27-0.98,5.78-1.97,10.55-2.99c2.38-0.51,4.78-0.95,7.18-1.32c2.4-0.37,4.83-0.71,7.29-1.03
		c4.92-0.59,8.61-0.88,11.07-0.88c2.11,0,4.15,0.02,6.12,0.06c1.97,0.04,3.91,0.13,5.8,0.26c1.89,0.14,3.79,0.35,5.68,0.64
		s3.82,0.67,5.77,1.14c3.91,0.94,7.19,2.46,9.84,4.57C988.47,343.49,989.8,346.27,989.8,349.74z"/>
</g>
<path class="st6" d="M884.2,532h-99.4c-7.62,0-13.8-6.18-13.8-13.8v-55.4c0-7.62,6.18-13.8,13.8-13.8h99.4
	c7.62,0,13.8,6.18,13.8,13.8v55.4C898,525.82,891.82,532,884.2,532z"/>
<ellipse class="st7" cx="825" cy="495.5" rx="31" ry="31.5"/>
<ellipse class="st8" cx="824.5" cy="494.5" rx="23.5" ry="25.5"/>
<path class="st9" d="M807.92,476.27c-17.99-8.43-1.11,34.45-1.11,34.45l12.79-3.41L807.92,476.27z"/>
<polygon class="st10" points="813.8,495.47 797.47,493.85 787.24,506.68 783.32,490.31 768,484.02 781.9,475.52 782.67,458.8 
	795.18,469.91 810.97,465.87 804.8,481.24 "/>
<path class="st9" d="M820,509c1,9.17,9,9.17,9,9.17h2h2l-8,1.83l-6-0.92l-7.92-3.09l-3.65-4.58L820,509z"/>
<path class="st8" d="M837.37,479.81c5.14,6.9,5.26,16.38,5.26,16.38"/>
<rect x="869" y="457" class="st11" width="17" height="12"/>
<rect x="879.5" y="457.5" class="st12" width="6" height="11"/>
<ellipse class="st13" cx="858.77" cy="515.56" rx="5" ry="4.5"/>
<g>
</g>
<g>
</g>
<g>
</g>
<g>
</g>
<g>
</g>
<g>
</g>
<g>
</g>
<g>
</g>
<g>
</g>
<g>
</g>
<g>
</g>
<g>
</g>
<g>
</g>
<g>
</g>
<g>
</g>
</svg>
